<svg width="48" height="48" viewBox="0 0 48 48" fill="none" xmlns="http://www.w3.org/2000/svg">
<path d="M1.8999 40V35.3C1.8999 34.1333 2.1999 33.075 2.7999 32.125C3.3999 31.175 4.23324 30.4667 5.2999 30C7.73324 28.9333 9.9249 28.1667 11.8749 27.7C13.8249 27.2333 15.8332 27 17.8999 27C19.9666 27 21.9666 27.2333 23.8999 27.7C25.8332 28.1667 28.0166 28.9333 30.4499 30C31.5166 30.4667 32.3582 31.175 32.9749 32.125C33.5916 33.075 33.8999 34.1333 33.8999 35.3V40H1.8999ZM36.8999 40V35.3C36.8999 33.2 36.3666 31.475 35.2999 30.125C34.2332 28.775 32.8332 27.6833 31.0999 26.85C33.3999 27.1167 35.5666 27.5083 37.5999 28.025C39.6332 28.5417 41.2832 29.1333 42.5499 29.8C43.6499 30.4333 44.5166 31.2167 45.1499 32.15C45.7832 33.0833 46.0999 34.1333 46.0999 35.3V40H36.8999ZM17.8999 23.95C15.6999 23.95 13.8999 23.25 12.4999 21.85C11.0999 20.45 10.3999 18.65 10.3999 16.45C10.3999 14.25 11.0999 12.45 12.4999 11.05C13.8999 9.65001 15.6999 8.95001 17.8999 8.95001C20.0999 8.95001 21.8999 9.65001 23.2999 11.05C24.6999 12.45 25.3999 14.25 25.3999 16.45C25.3999 18.65 24.6999 20.45 23.2999 21.85C21.8999 23.25 20.0999 23.95 17.8999 23.95ZM28.3999 23.95C28.0332 23.95 27.6249 23.925 27.1749 23.875C26.7249 23.825 26.3166 23.7333 25.9499 23.6C26.7499 22.7667 27.3582 21.7417 27.7749 20.525C28.1916 19.3083 28.3999 17.95 28.3999 16.45C28.3999 14.95 28.1916 13.625 27.7749 12.475C27.3582 11.325 26.7499 10.2667 25.9499 9.30001C26.3166 9.20001 26.7249 9.11668 27.1749 9.05001C27.6249 8.98335 28.0332 8.95001 28.3999 8.95001C30.5999 8.95001 32.3999 9.65001 33.7999 11.05C35.1999 12.45 35.8999 14.25 35.8999 16.45C35.8999 18.65 35.1999 20.45 33.7999 21.85C32.3999 23.25 30.5999 23.95 28.3999 23.95ZM4.8999 37H30.8999V35.3C30.8999 34.7667 30.7416 34.25 30.4249 33.75C30.1082 33.25 29.7166 32.9 29.2499 32.7C26.8499 31.6333 24.8332 30.9167 23.1999 30.55C21.5666 30.1833 19.7999 30 17.8999 30C15.9999 30 14.2249 30.1833 12.5749 30.55C10.9249 30.9167 8.8999 31.6333 6.4999 32.7C6.03324 32.9 5.6499 33.25 5.3499 33.75C5.0499 34.25 4.8999 34.7667 4.8999 35.3V37ZM17.8999 20.95C19.1999 20.95 20.2749 20.525 21.1249 19.675C21.9749 18.825 22.3999 17.75 22.3999 16.45C22.3999 15.15 21.9749 14.075 21.1249 13.225C20.2749 12.375 19.1999 11.95 17.8999 11.95C16.5999 11.95 15.5249 12.375 14.6749 13.225C13.8249 14.075 13.3999 15.15 13.3999 16.45C13.3999 17.75 13.8249 18.825 14.6749 19.675C15.5249 20.525 16.5999 20.95 17.8999 20.95Z" fill="white"/>
</svg>
