<svg width="48" height="48" viewBox="0 0 48 48" fill="none" xmlns="http://www.w3.org/2000/svg">
<path d="M41.55 34.35L39.5 32.25C40.6 31.15 41.4583 29.8833 42.075 28.45C42.6917 27.0167 43 25.5 43 23.9C43 22.3333 42.675 20.8333 42.025 19.4C41.375 17.9667 40.4167 16.7667 39.15 15.8L41.45 13.5C42.9167 14.8667 44.0417 16.45 44.825 18.25C45.6083 20.05 46 21.95 46 23.95C46 25.95 45.6167 27.8417 44.85 29.625C44.0833 31.4083 42.9833 32.9833 41.55 34.35ZM37.35 30.15L35.25 28.05C35.8167 27.4833 36.25 26.8417 36.55 26.125C36.85 25.4083 37 24.6667 37 23.9C37 23.1333 36.8583 22.3833 36.575 21.65C36.2917 20.9167 35.8667 20.2667 35.3 19.7L37.35 17.6C38.1833 18.4333 38.8333 19.3917 39.3 20.475C39.7667 21.5583 40 22.6833 40 23.85C40 25.0167 39.7667 26.15 39.3 27.25C38.8333 28.35 38.1833 29.3167 37.35 30.15ZM13 46C12.1667 46 11.4583 45.7083 10.875 45.125C10.2917 44.5417 10 43.8333 10 43V5C10 4.16667 10.2917 3.45833 10.875 2.875C11.4583 2.29167 12.1667 2 13 2H35C35.8333 2 36.5417 2.29167 37.125 2.875C37.7083 3.45833 38 4.16667 38 5V12.3H35V9.5H13V38.5H35V35.7H38V43C38 43.8333 37.7083 44.5417 37.125 45.125C36.5417 45.7083 35.8333 46 35 46H13ZM13 41.5V43H35V41.5H13ZM13 6.5H35V5H13V6.5ZM13 5V6.5V5ZM13 43V41.5V43Z" fill="white"/>
</svg>
